<svg width="128" height="128" viewBox="0 0 128 128" fill="none" xmlns="http://www.w3.org/2000/svg">
<path d="M32.4854 97.9999C51.7212 97.9999 67.2246 84.4105 67.2246 63.7392C67.2246 45.2691 53.5395 29 33.1553 29C25.8821 29 21.2885 32.0624 19.853 36.0818C12.7711 40.0055 1 51.0111 1 66.4188C1 86.0374 14.5894 97.9999 32.4854 97.9999Z" fill="#E6E6E6"/>
<path d="M95.7352 97.9999C76.4994 97.9999 60.9959 84.4105 60.9959 63.7392C60.9959 45.2691 74.6811 29 95.0653 29C102.338 29 106.932 32.0624 108.368 36.0818C115.449 40.0055 127.221 51.0111 127.221 66.4188C127.221 86.0374 113.631 97.9999 95.7352 97.9999Z" fill="#E6E6E6"/>
<path d="M81.051 78C89.1326 78 94.7347 73.0408 94.8265 64.5918C94.9183 56.1429 91.0612 51 83.6224 51C80.5 51 78.2959 52.102 76.8265 53.5714C76.2755 53.1122 75.6326 52.9286 74.5306 52.9286C71.1326 52.9286 67 58.0714 67 64.5918C67 73.1326 72.7857 78 81.051 78Z" fill="black"/>
<path d="M21.051 78C29.1326 78 34.7347 73.0408 34.8265 64.5918C34.9183 56.1429 31.0612 51 23.6224 51C20.5 51 18.2959 52.102 16.8265 53.5714C16.2755 53.1122 15.6326 52.9286 14.5306 52.9286C11.1326 52.9286 7 58.0714 7 64.5918C7 73.1326 12.7857 78 21.051 78Z" fill="black"/>
</svg>
