<svg width="128" height="128" viewBox="0 0 128 128" fill="none" xmlns="http://www.w3.org/2000/svg">
<path d="M32.4854 97.9999C51.7212 97.9999 67.2246 84.4105 67.2246 63.7392C67.2246 45.2691 53.5395 29 33.1553 29C25.8821 29 21.2885 32.0624 19.853 36.0818C12.7711 40.0055 1 51.0111 1 66.4188C1 86.0374 14.5894 97.9999 32.4854 97.9999Z" fill="#E6E6E6"/>
<path d="M95.7352 97.9999C76.4994 97.9999 60.9959 84.4105 60.9959 63.7392C60.9959 45.2691 74.6811 29 95.0653 29C102.338 29 106.932 32.0624 108.368 36.0818C115.449 40.0055 127.221 51.0111 127.221 66.4188C127.221 86.0374 113.631 97.9999 95.7352 97.9999Z" fill="#E6E6E6"/>
<path d="M107.051 78C115.133 78 120.735 73.0408 120.827 64.5918C120.918 56.1429 117.061 51 109.622 51C106.5 51 104.296 52.102 102.827 53.5714C102.276 53.1122 101.633 52.9286 100.531 52.9286C97.1326 52.9286 93 58.0714 93 64.5918C93 73.1326 98.7857 78 107.051 78Z" fill="black"/>
<path d="M47.051 78C55.1326 78 60.7347 73.0408 60.8265 64.5918C60.9183 56.1429 57.0612 51 49.6224 51C46.5 51 44.2959 52.102 42.8265 53.5714C42.2755 53.1122 41.6326 52.9286 40.5306 52.9286C37.1326 52.9286 33 58.0714 33 64.5918C33 73.1326 38.7857 78 47.051 78Z" fill="black"/>
</svg>
