<svg width="128" height="128" viewBox="0 0 128 128" fill="none" xmlns="http://www.w3.org/2000/svg">
<path d="M32.4854 97.9999C51.7212 97.9999 67.2246 84.4105 67.2246 63.7392C67.2246 45.2691 53.5395 29 33.1553 29C25.8821 29 21.2885 32.0624 19.853 36.0818C12.7711 40.0055 1 51.0111 1 66.4188C1 86.0374 14.5894 97.9999 32.4854 97.9999Z" fill="#E6E6E6"/>
<path d="M95.7352 97.9999C76.4994 97.9999 60.9959 84.4105 60.9959 63.7392C60.9959 45.2691 74.6811 29 95.0653 29C102.338 29 106.932 32.0624 108.368 36.0818C115.449 40.0055 127.221 51.0111 127.221 66.4188C127.221 86.0374 113.631 97.9999 95.7352 97.9999Z" fill="#E6E6E6"/>
<path d="M94.051 78C102.133 78 107.735 73.0408 107.827 64.5918C107.918 56.1429 104.061 51 96.6224 51C93.5 51 91.2959 52.102 89.8265 53.5714C89.2755 53.1122 88.6326 52.9286 87.5306 52.9286C84.1326 52.9286 80 58.0714 80 64.5918C80 73.1326 85.7857 78 94.051 78Z" fill="black"/>
<path d="M34.051 78C42.1326 78 47.7347 73.0408 47.8265 64.5918C47.9183 56.1429 44.0612 51 36.6224 51C33.5 51 31.2959 52.102 29.8265 53.5714C29.2755 53.1122 28.6326 52.9286 27.5306 52.9286C24.1326 52.9286 20 58.0714 20 64.5918C20 73.1326 25.7857 78 34.051 78Z" fill="black"/>
</svg>
